<?xml version="1.0" standalone="no"?>
<!DOCTYPE svg PUBLIC "-//W3C//DTD SVG 20010904//EN"
 "http://www.w3.org/TR/2001/REC-SVG-20010904/DTD/svg10.dtd">
<svg version="1.0" xmlns="http://www.w3.org/2000/svg"
 width="258.000000pt" height="319.000000pt" viewBox="0 0 258.000000 319.000000"
 preserveAspectRatio="xMidYMid meet">

<g transform="translate(0.000000,319.000000) scale(0.100000,-0.100000)"
fill="#000000" stroke="none">
<path d="M1212 3100 c-18 -4 -45 -18 -59 -31 -56 -53 -53 22 -53 -1284 0 -663
-3 -1205 -8 -1205 -4 0 -169 162 -367 361 -198 199 -378 374 -399 390 -73 54
-179 33 -226 -43 -24 -39 -26 -107 -6 -146 8 -15 255 -266 548 -558 578 -577
565 -566 650 -544 38 10 100 69 566 533 288 287 532 537 544 555 27 44 28 124
1 161 -47 63 -136 90 -196 60 -12 -6 -196 -185 -409 -397 l-388 -387 0 1205
c0 1153 -1 1207 -19 1246 -29 65 -105 100 -179 84z"/>
</g>
</svg>
