<svg width="80" height="507" viewBox="0 0 80 507" fill="none" xmlns="http://www.w3.org/2000/svg">
<path d="M2 0.776L78.14 0.776V35.876C78.14 44.228 76.376 50.672 72.848 55.208C69.32 59.744 64.496 62.012 58.376 62.012C53.84 62.012 49.988 60.644 46.82 57.908C43.652 55.244 41.528 51.572 40.448 46.892H42.176C41.24 52.364 39.152 56.576 35.912 59.528C32.744 62.552 28.604 64.064 23.492 64.064C16.724 64.064 11.432 61.652 7.616 56.828C3.872 52.076 2 45.488 2 37.064V0.776ZM14.528 16.868V35.012C14.528 39.188 15.32 42.392 16.904 44.624C18.488 46.856 21.008 47.972 24.464 47.972C27.992 47.972 30.512 46.856 32.024 44.624C33.608 42.392 34.4 39.188 34.4 35.012V16.868L14.528 16.868ZM46.82 16.868V32.852C46.82 37.244 47.612 40.484 49.196 42.572C50.78 44.66 53.156 45.704 56.324 45.704C59.42 45.704 61.76 44.66 63.344 42.572C64.928 40.484 65.72 37.244 65.72 32.852V16.868H46.82ZM2 75.9752H78.14V128.895H65.072V92.0672H47.252V126.303H34.076L34.076 92.0672H15.068L15.068 128.895H2L2 75.9752ZM2 140.628H78.14V153.156L25.544 194.52V191.604H78.14V207.264H2V194.736L54.596 153.48V156.288H2V140.628ZM2 222.682H78.14V275.602H65.072V238.774H47.252V273.01H34.076V238.774H15.068V275.602H2V222.682ZM2 287.335H78.14V339.067H65.072V304.183H46.496V336.583H33.536V304.183H2V287.335ZM2 349.772H78.14V366.62H2V349.772ZM2 399.65H64.424V375.458H78.14V440.69H64.424V416.498H2V399.65ZM0.812 474.976C0.812 468.856 1.568 463.132 3.08 457.804C4.592 452.476 6.68 447.94 9.344 444.196L22.52 449.164C20.864 451.612 19.46 454.204 18.308 456.94C17.156 459.676 16.256 462.556 15.608 465.58C15.032 468.604 14.744 471.772 14.744 475.084C14.744 480.268 15.536 483.94 17.12 486.1C18.704 488.332 20.72 489.448 23.168 489.448C25.4 489.448 27.092 488.692 28.244 487.18C29.468 485.74 30.512 483.076 31.376 479.188L33.968 466.444C35.408 459.46 37.856 454.24 41.312 450.784C44.768 447.328 49.376 445.6 55.136 445.6C60.032 445.6 64.28 446.896 67.88 449.488C71.48 452.08 74.288 455.716 76.304 460.396C78.32 465.148 79.328 470.692 79.328 477.028C79.328 482.428 78.572 487.468 77.06 492.148C75.548 496.828 73.388 500.68 70.58 503.704L58.268 498.736C60.644 495.784 62.408 492.472 63.56 488.8C64.784 485.2 65.396 481.168 65.396 476.704C65.396 472.024 64.568 468.424 62.912 465.904C61.256 463.456 58.988 462.232 56.108 462.232C53.948 462.232 52.184 462.988 50.816 464.5C49.52 466.012 48.476 468.676 47.684 472.492L45.2 485.02C43.76 492.148 41.348 497.44 37.964 500.896C34.58 504.352 30.08 506.08 24.464 506.08C19.712 506.08 15.572 504.784 12.044 502.192C8.516 499.672 5.744 496.072 3.728 491.392C1.784 486.784 0.812 481.312 0.812 474.976Z" fill="#C0CFCD" fill-opacity="0.1"/>
</svg>
