<svg width="128" height="368" viewBox="0 0 128 368" fill="none" xmlns="http://www.w3.org/2000/svg">
<path d="M0.404297 0.960001L127.304 0.960001V59.46C127.304 73.38 124.364 84.12 118.484 91.68C112.604 99.24 104.564 103.02 94.3643 103.02C86.8043 103.02 80.3843 100.74 75.1043 96.18C69.8243 91.74 66.2843 85.62 64.4843 77.82L67.3643 77.82C65.8043 86.94 62.3243 93.96 56.9243 98.88C51.6443 103.92 44.7443 106.44 36.2243 106.44C24.9443 106.44 16.1243 102.42 9.7643 94.38C3.5243 86.46 0.404297 75.48 0.404297 61.44V0.960001ZM21.2843 27.78V58.02C21.2843 64.98 22.6043 70.32 25.2443 74.04C27.8843 77.76 32.0843 79.62 37.8443 79.62C43.7243 79.62 47.9243 77.76 50.4443 74.04C53.0843 70.32 54.4043 64.98 54.4043 58.02V27.78H21.2843ZM75.1043 27.78V54.42C75.1043 61.74 76.4243 67.14 79.0643 70.62C81.7043 74.1 85.6643 75.84 90.9443 75.84C96.1043 75.84 100.004 74.1 102.644 70.62C105.284 67.14 106.604 61.74 106.604 54.42V27.78H75.1043ZM0.404297 126.292H127.304V154.372H0.404297V126.292ZM0.404297 180.081H127.304V208.161H23.9843L23.9843 265.401H0.404297L0.404297 180.081ZM0.404297 282.562H127.304V310.642H23.9843V367.882H0.404297V282.562Z" fill="#C0CFCD" fill-opacity="0.15"/>
</svg>
