<svg width="133" height="508" viewBox="0 0 133 508" fill="none" xmlns="http://www.w3.org/2000/svg">
<path d="M130.564 0.78V50.28C130.564 64.32 128.044 76.38 123.004 86.46C117.964 96.54 110.644 104.22 101.044 109.5C91.4443 114.9 79.9843 117.6 66.6643 117.6C53.2243 117.6 41.7043 114.96 32.1043 109.68C22.5043 104.4 15.1243 96.72 9.9643 86.64C4.9243 76.56 2.4043 64.44 2.4043 50.28V0.78L130.564 0.78ZM25.0843 48.48C25.0843 75.84 38.9443 89.52 66.6643 89.52C94.1443 89.52 107.884 75.84 107.884 48.48V28.86H25.0843V48.48ZM0.784297 198.507C0.784297 185.787 3.4243 174.687 8.7043 165.207C14.1043 155.847 21.7843 148.587 31.7443 143.427C41.7043 138.387 53.3443 135.867 66.6643 135.867C79.9843 135.867 91.5643 138.387 101.404 143.427C111.244 148.587 118.804 155.847 124.084 165.207C129.484 174.687 132.184 185.787 132.184 198.507C132.184 211.227 129.484 222.267 124.084 231.627C118.804 240.987 111.244 248.187 101.404 253.227C91.5643 258.267 79.9843 260.787 66.6643 260.787C53.3443 260.787 41.7043 258.267 31.7443 253.227C21.7843 248.187 14.1043 240.987 8.7043 231.627C3.4243 222.267 0.784297 211.227 0.784297 198.507ZM22.7443 198.507C22.7443 209.307 26.5243 217.707 34.0843 223.707C41.6443 229.827 52.5043 232.887 66.6643 232.887C80.8243 232.887 91.6243 229.827 99.0643 223.707C106.504 217.707 110.224 209.307 110.224 198.507C110.224 187.707 106.504 179.247 99.0643 173.127C91.6243 167.127 80.8243 164.127 66.6643 164.127C52.3843 164.127 41.4643 167.127 33.9043 173.127C26.4643 179.247 22.7443 187.707 22.7443 198.507ZM130.564 393.793H2.4043V372.913L84.1243 309.013H2.4043V282.733H130.564V303.433L49.0243 367.333H130.564V393.793ZM130.564 419.491V507.871H108.784V446.851H78.5443V504.091H56.5843V446.851H24.1843V507.871H2.4043V419.491H130.564Z" fill="#C0CFCD" fill-opacity="0.15"/>
</svg>
