<svg width="133" height="494" viewBox="0 0 133 494" fill="none" xmlns="http://www.w3.org/2000/svg">
<path d="M0.837031 51.1C0.837031 41.38 2.09703 32.02 4.61703 23.02C7.25703 14.14 10.917 6.76 15.597 0.88L35.757 9.88C27.117 22.24 22.797 36.04 22.797 51.28C22.797 59.44 24.057 65.68 26.577 70C29.217 74.44 32.877 76.66 37.557 76.66C41.637 76.66 44.817 74.62 47.097 70.54C49.497 66.58 51.777 59.56 53.937 49.48C56.217 38.2 58.977 29.2 62.217 22.48C65.577 15.88 69.597 11.02 74.277 7.9C79.077 4.9 85.017 3.4 92.097 3.4C99.777 3.4 106.677 5.5 112.797 9.7C118.917 14.02 123.657 20.02 127.017 27.7C130.497 35.38 132.237 44.26 132.237 54.34C132.237 63.46 130.917 72.22 128.277 80.62C125.637 89.02 122.037 95.74 117.477 100.78L97.317 91.78C105.957 80.5 110.277 68.08 110.277 54.52C110.277 47.32 108.837 41.56 105.957 37.24C103.077 32.92 99.177 30.76 94.257 30.76C91.377 30.76 88.977 31.54 87.057 33.1C85.137 34.78 83.397 37.54 81.837 41.38C80.397 45.22 78.957 50.68 77.517 57.76C73.917 74.2 69.237 86.02 63.477 93.22C57.717 100.54 49.857 104.2 39.897 104.2C27.897 104.2 18.357 99.52 11.277 90.16C4.31703 80.8 0.837031 67.78 0.837031 51.1ZM0.837031 184.701C0.837031 171.741 3.53703 160.401 8.93703 150.681C14.457 141.081 22.137 133.701 31.977 128.541C41.937 123.381 53.517 120.801 66.717 120.801C79.797 120.801 91.257 123.381 101.097 128.541C111.057 133.701 118.737 141.081 124.137 150.681C129.537 160.401 132.237 171.741 132.237 184.701C132.237 193.221 130.917 201.321 128.277 209.001C125.757 216.801 122.157 223.161 117.477 228.081L97.317 219.261C101.637 213.501 104.757 207.861 106.677 202.341C108.717 196.941 109.737 191.241 109.737 185.241C109.737 173.721 106.077 164.901 98.757 158.781C91.437 152.661 80.757 149.601 66.717 149.601C52.557 149.601 41.757 152.661 34.317 158.781C26.997 164.901 23.337 173.721 23.337 185.241C23.337 191.241 24.297 196.941 26.217 202.341C28.257 207.861 31.437 213.501 35.757 219.261L15.597 228.081C10.917 223.161 7.25703 216.801 4.61703 209.001C2.09703 201.321 0.837031 193.221 0.837031 184.701ZM30.897 331.55V271.61L2.45703 259.37V231.11L130.617 289.97V312.65L2.45703 371.51V343.79L30.897 331.55ZM52.317 322.37L100.377 301.67L52.317 280.97V322.37ZM130.617 493.512H2.45703V472.632L84.177 408.732H2.45703V382.452H130.617V403.152L49.077 467.052H130.617V493.512Z" fill="#C0CFCD" fill-opacity="0.15"/>
</svg>
