<svg width="111" height="588" viewBox="0 0 111 588" fill="none" xmlns="http://www.w3.org/2000/svg">
<path d="M0.65 42C0.65 33.9 1.7 26.1 3.8 18.6C6 11.2 9.05 5.05 12.95 0.15L29.75 7.65C22.55 17.95 18.95 29.45 18.95 42.15C18.95 48.95 20 54.15 22.1 57.75C24.3 61.45 27.35 63.3 31.25 63.3C34.65 63.3 37.3 61.6 39.2 58.2C41.2 54.9 43.1 49.05 44.9 40.65C46.8 31.25 49.1 23.75 51.8 18.15C54.6 12.65 57.95 8.6 61.85 6C65.85 3.5 70.8 2.25 76.7 2.25C83.1 2.25 88.85 4 93.95 7.5C99.05 11.1 103 16.1 105.8 22.5C108.7 28.9 110.15 36.3 110.15 44.7C110.15 52.3 109.05 59.6 106.85 66.6C104.65 73.6 101.65 79.2 97.85 83.4L81.05 75.9C88.25 66.5 91.85 56.15 91.85 44.85C91.85 38.85 90.65 34.05 88.25 30.45C85.85 26.85 82.6 25.05 78.5 25.05C76.1 25.05 74.1 25.7 72.5 27C70.9 28.4 69.45 30.7 68.15 33.9C66.95 37.1 65.75 41.65 64.55 47.55C61.55 61.25 57.65 71.1 52.85 77.1C48.05 83.2 41.5 86.25 33.2 86.25C23.2 86.25 15.25 82.35 9.35 74.55C3.55 66.75 0.65 55.9 0.65 42ZM108.8 103.234L108.8 176.884H90.65L90.65 126.034H65.45V173.734H47.15V126.034H20.15V176.884H2V103.234L108.8 103.234ZM0.65 243.129C0.65 232.329 2.9 222.879 7.4 214.779C12 206.779 18.4 200.629 26.6 196.329C34.9 192.029 44.55 189.879 55.55 189.879C66.45 189.879 76 192.029 84.2 196.329C92.5 200.629 98.9 206.779 103.4 214.779C107.9 222.879 110.15 232.329 110.15 243.129C110.15 250.229 109.05 256.979 106.85 263.379C104.75 269.879 101.75 275.179 97.85 279.279L81.05 271.929C84.65 267.129 87.25 262.429 88.85 257.829C90.55 253.329 91.4 248.579 91.4 243.579C91.4 233.979 88.35 226.629 82.25 221.529C76.15 216.429 67.25 213.879 55.55 213.879C43.75 213.879 34.75 216.429 28.55 221.529C22.45 226.629 19.4 233.979 19.4 243.579C19.4 248.579 20.2 253.329 21.8 257.829C23.5 262.429 26.15 267.129 29.75 271.929L12.95 279.279C9.05 275.179 6 269.879 3.8 263.379C1.7 256.979 0.65 250.229 0.65 243.129ZM0.65 341.014C0.65 326.014 4.5 314.614 12.2 306.814C19.9 299.014 31.2 295.114 46.1 295.114H108.8V318.064H45.05C36.55 318.064 30.05 320.014 25.55 323.914C21.15 327.914 18.95 333.614 18.95 341.014C18.95 348.414 21.15 354.064 25.55 357.964C30.05 361.864 36.55 363.814 45.05 363.814H108.8V386.914H46.1C31.3 386.914 20 382.964 12.2 375.064C4.5 367.264 0.65 355.914 0.65 341.014ZM2 497.779V473.029L37.55 459.379C40.35 458.279 42.3 456.579 43.4 454.279C44.5 452.079 45.05 449.279 45.05 445.879V430.729H2V407.629H108.8V455.179C108.8 467.579 106.1 476.979 100.7 483.379C95.3 489.779 87.55 492.979 77.45 492.979C70.35 492.979 64.25 491.079 59.15 487.279C54.05 483.579 50.4 478.229 48.2 471.229C46.9 477.529 42.55 482.079 35.15 484.879L2 497.779ZM62.9 451.729C62.9 458.429 64 463.329 66.2 466.429C68.5 469.529 72.05 471.079 76.85 471.079C81.65 471.079 85.15 469.529 87.35 466.429C89.65 463.329 90.8 458.429 90.8 451.729V430.429H62.9V451.729ZM108.8 513.83V587.48H90.65V536.63H65.45L65.45 584.33H47.15L47.15 536.63H20.15V587.48H2V513.83H108.8Z" fill="#C0CFCD" fill-opacity="0.1"/>
</svg>
